<?xml version="1.0" ?><svg id="Layer_1" style="enable-background:new 0 0 100 100;" version="1.1" viewBox="0 0 100 100" xml:space="preserve" xmlns="http://www.w3.org/2000/svg" xmlns:xlink="http://www.w3.org/1999/xlink"><style type="text/css">
	.st0{fill:none;}
	.st1{fill:none;stroke:#000000;stroke-width:0;stroke-linecap:round;stroke-linejoin:round;}
</style><title/><g><path class="st0" d="M41.8,84c0.1,0.2,0.1,0.3,0.1,0.5c0,3.3,0.2,6.7,0.5,10c2.6-0.1,4.9-0.1,7.2-0.2v0c0.3,0,0.7,0,1,0   c-0.3-5-0.4-10-0.5-15C48.4,80.4,45.5,82.1,41.8,84z"/><path class="st0" d="M16.3,94c-0.2,0.1-0.4,0.1-0.5,0.2c1.7,0.1,4.3,0.2,7.7,0.3c1.4,0,2.7,0.1,4,0.1c-0.1-1.4-0.3-2.8-0.4-4.1   C22.6,92.1,18.8,93.2,16.3,94z"/><path class="st0" d="M66.9,47.5c3.1-3.3,6.8-7.5,10.8-12.7c0,0,0,0,0-0.1c0.5-0.6,1.4-0.7,2-0.2c1.7,1.5,3.6,2.9,5.6,4.4   c1,0.8,2.1,1.5,3.1,2.2c0.3,0.2,0.6,0.3,1,0.3c0.4,0,0.8-0.2,1.2-0.4c0.3-0.3,0.5-0.7,0.5-1.1c0.2-4.9,0.3-9.9,0.3-15v-0.7   c0-5.6-0.1-11-0.3-16.3c0-0.2,0-0.3-0.1-0.5c-0.3-1.4-1.7-2.3-3.2-2C76.6,8,65.5,10.7,54.5,13.7c-0.3,0.1-0.6,0.3-0.8,0.5   c-0.2,0.3-0.3,0.6-0.3,0.9c0,0.5,0.3,1,0.7,1.2c0.9,0.6,1.8,1.1,2.7,1.7c2.2,1.3,4.3,2.5,6.3,3.5c0.7,0.4,1,1.2,0.6,1.9   c-3.1,6-6.6,11.7-10.6,17.1c-8.5,11.4-18,20-30,30.8C16.7,77,12,81,9.4,83.5c-0.6,0.6-1.2,1.2-1.7,1.8c0.7-0.1,1.4-0.2,2.1-0.4   c1.1-0.3,2.4-0.7,3.6-1.1c2.5-0.9,4.9-1.9,6.1-2.4C28.9,77.6,47.1,68.6,66.9,47.5z"/><path class="st0" d="M31.5,88.7c-0.6,0.2-1.2,0.5-1.7,0.7c0.2,1.7,0.4,3.5,0.5,5.2c0.7,0,1.3,0,1.9,0c2.6,0,5,0,7.3-0.1   c-0.3-3.1-0.4-6.1-0.5-9.2C36.8,86.5,34.2,87.6,31.5,88.7z"/><path class="st0" d="M52.9,77.5c0,0.1,0,0.1,0,0.2c0.1,5.5,0.3,11.1,0.6,16.6c3.4-0.1,6.9-0.2,10.4-0.3c-0.3-8.1-0.5-16.3-0.8-24.4   C59.8,72.4,56.4,75,52.9,77.5z"/><path class="st0" d="M91.2,55.3c-0.1-0.1-0.1-0.1-0.2-0.1c-0.1,0-0.2-0.1-0.5-0.2c-0.6-0.3-1.6-0.7-3.5-1.6   c-1.2-0.6-2.3-1.1-3.4-1.6c-0.5-0.2-1-0.4-1.6-0.4c-1.1,0-2.1,0.5-2.8,1.4l0,0c-0.2,0.3-0.4,0.5-0.6,0.8l2.3,40.3h0.6   c2.2,0,3.9,0,5.2-0.2c1-0.1,1.9-0.3,2.8-0.7c0.5-0.2,0.9-0.5,1.2-0.9c0.5-0.4,0.8-1,1-1.6c0.2-0.9,0.3-1.8,0.3-2.7   c0-1.7-0.1-4.1-0.1-7.5c0-2.1,0.1-4.7,0.3-7.7l0,0c0.3-4.9,0.8-8.8,0.8-11.8c0-1.2-0.1-2.4-0.4-3.5C92.2,56.5,91.8,55.8,91.2,55.3z   "/><path class="st0" d="M65.8,67.1c0,0.1,0.1,0.3,0.1,0.4c0.3,8.8,0.6,17.6,0.9,26.4c3.2-0.1,6.4-0.1,9.6-0.1v0h0.3h1.1   c0-0.1,0.1-0.2,0.1-0.4c-0.7-12.2-1.4-24.5-2.1-36.7C72.7,60.4,69.3,63.8,65.8,67.1z"/><path d="M20.6,84.1c9.6-3.9,28.3-13.1,48.4-34.6c2.9-3.1,6.3-7,10.1-11.8c1.4,1.2,3,2.4,4.6,3.6c1.1,0.8,2.1,1.5,3.2,2.3   c1.8,1.2,4.1,1.1,5.7-0.4c0.9-0.8,1.4-2,1.5-3.2c0.2-4.9,0.3-9.9,0.3-15.1v-0.7c0-5.6-0.1-11.1-0.3-16.4c-0.1-3-2.7-5.4-5.7-5.3   c-0.3,0-0.7,0.1-1,0.1C76,5.2,64.8,7.9,53.7,10.9c-1,0.3-1.8,0.8-2.4,1.6c-0.5,0.8-0.8,1.7-0.8,2.6c0,1.5,0.8,2.9,2,3.7   c0.9,0.6,1.8,1.1,2.8,1.7c1.8,1.1,3.5,2,5.2,2.9c-2.8,5.4-6.1,10.6-9.7,15.5C42.6,50,33.2,58.4,21.2,69.2C16,73.9,11.9,77.4,9,79.9   c-1.2,1-2.3,2.1-3.3,3.3c-0.4,0.4-0.7,0.8-1,1.3c-0.3,0.5-0.5,1-0.5,1.5c0,0.7,0.3,1.3,0.9,1.7c0.3,0.2,0.6,0.4,1,0.4   c0.3,0.1,0.6,0.1,1,0.1c1.1,0,2.3-0.2,3.4-0.5c2-0.5,3.9-1.2,5.8-1.9C18.1,85.1,19.7,84.4,20.6,84.1z M9.7,84.9   c-0.7,0.2-1.4,0.3-2.1,0.4c0.5-0.6,1.1-1.2,1.7-1.8C12,81,16.7,77,23.1,71.4c12-10.8,21.6-19.4,30-30.8c4-5.4,7.6-11.1,10.6-17.1   c0.4-0.7,0.1-1.6-0.6-1.9c-2.1-1.1-4.2-2.3-6.3-3.5c-0.9-0.6-1.8-1.1-2.7-1.7c-0.4-0.3-0.7-0.7-0.7-1.2c0-0.3,0.1-0.6,0.3-0.9   c0.2-0.3,0.5-0.5,0.8-0.5C65.5,10.7,76.6,8,87.8,5.4c1.4-0.3,2.8,0.6,3.2,2C91,7.6,91,7.8,91,7.9c0.2,5.2,0.3,10.7,0.3,16.3v0.7   c0,5.2-0.1,10.2-0.3,15c0,0.4-0.2,0.9-0.5,1.1c-0.3,0.3-0.7,0.4-1.2,0.4c-0.3,0-0.7-0.1-1-0.3c-1-0.7-2-1.4-3.1-2.2   c-2-1.5-3.9-3-5.6-4.4c-0.6-0.5-1.5-0.4-2,0.2c0,0,0,0,0,0.1c-4,5.2-7.7,9.5-10.8,12.7c-19.7,21.1-38,30.1-47.4,33.9   c-1.2,0.5-3.6,1.5-6.1,2.4C12.1,84.2,10.8,84.6,9.7,84.9z"/><line class="st1" x1="4.5" x2="4.5" y1="87.1" y2="87.1"/><path d="M95.7,60.7c0-1.5-0.1-3-0.5-4.4C94.8,55,94,53.9,92.9,53c-0.2-0.1-0.4-0.3-0.6-0.4c-0.3-0.2-0.6-0.3-1.2-0.6   c-0.6-0.3-1.5-0.7-2.9-1.3c-1.2-0.6-2.3-1.1-3.3-1.6c-2.7-1.4-6-0.6-7.9,1.8l0,0c-7.8,9.9-17,18.4-27.5,25.4   c-6,3.8-12.4,7.1-19,9.8c-5.3,2.2-10,3.6-13.4,4.7c-1.7,0.5-3.1,1-4.1,1.4c-0.5,0.2-0.9,0.4-1.4,0.7c-0.2,0.2-0.4,0.4-0.6,0.6   c-0.2,0.3-0.4,0.7-0.4,1.1c0,0.1,0,0.2,0,0.2v0v0c0,0.2,0.1,0.5,0.3,0.7c0.2,0.3,0.5,0.6,0.8,0.7c0.5,0.2,1.1,0.4,1.6,0.5   c1.3,0.2,2.5,0.3,3.8,0.4c1.6,0.1,3.7,0.2,6.2,0.2c3.2,0.1,6.2,0.1,8.9,0.1c7,0,12.5-0.2,17.4-0.3c8.9-0.2,17.8-0.6,26.7-0.6h0.3   c1.8,0,3.4,0,4.8,0c2.3,0.1,4.6,0,6.9-0.4c0.8-0.1,1.6-0.4,2.4-0.8c0.7-0.4,1.4-0.8,2-1.4c0.8-0.8,1.4-1.8,1.8-2.9   c0.3-1.1,0.4-2.3,0.4-3.5c0-1.9-0.1-4.2-0.1-7.5c0-2.1,0.1-4.6,0.2-7.5C95.2,67.9,95.7,64,95.7,60.7z M23.4,94.5   c-3.4-0.1-6-0.2-7.7-0.3c0.2-0.1,0.4-0.1,0.5-0.2c2.5-0.8,6.3-2,10.7-3.6c0.1,1.4,0.3,2.8,0.4,4.1C26.1,94.6,24.8,94.6,23.4,94.5z    M32.2,94.6c-0.6,0-1.3,0-1.9,0c-0.2-1.7-0.4-3.5-0.5-5.2c0.6-0.2,1.1-0.4,1.7-0.7c2.7-1.1,5.3-2.3,7.5-3.4   c0.1,3.1,0.2,6.1,0.5,9.2C37.3,94.6,34.9,94.6,32.2,94.6z M49.6,94.3L49.6,94.3c-2.3,0-4.7,0.1-7.2,0.2c-0.3-3.3-0.5-6.7-0.5-10   c0-0.2,0-0.3-0.1-0.5c3.7-1.9,6.6-3.6,8.3-4.7c0.1,5,0.3,10,0.5,15C50.3,94.3,49.9,94.3,49.6,94.3z M53.5,94.2   c-0.3-5.5-0.5-11-0.6-16.6c0-0.1,0-0.1,0-0.2c3.5-2.4,6.9-5.1,10.2-7.9c0.3,8.1,0.5,16.3,0.8,24.4C60.4,94,56.9,94.1,53.5,94.2z    M77.8,93.8h-1.1h-0.3v0c-3.2,0-6.4,0.1-9.6,0.1c-0.3-8.8-0.6-17.6-0.9-26.4c0-0.1,0-0.3-0.1-0.4c3.6-3.3,6.9-6.8,10.1-10.4   c0.7,12.2,1.4,24.5,2.1,36.7C77.9,93.5,77.8,93.6,77.8,93.8z M92,72.5L92,72.5c-0.2,3-0.2,5.6-0.2,7.7c0,3.4,0.1,5.8,0.1,7.5   c0,0.9-0.1,1.8-0.3,2.7c-0.2,0.6-0.5,1.2-1,1.6c-0.4,0.4-0.8,0.7-1.2,0.9c-0.9,0.4-1.8,0.6-2.8,0.7c-1.3,0.1-3,0.2-5.2,0.2h-0.6   l-2.3-40.3c0.2-0.3,0.4-0.5,0.6-0.8l0,0c0.7-0.9,1.7-1.4,2.8-1.4c0.5,0,1.1,0.1,1.6,0.4c1,0.5,2.1,1.1,3.4,1.6   c1.9,0.9,2.9,1.3,3.5,1.6c0.3,0.1,0.4,0.2,0.5,0.2c0.1,0,0.1,0.1,0.2,0.1c0.6,0.5,1.1,1.2,1.3,1.9c0.3,1.1,0.4,2.3,0.4,3.5   C92.9,63.6,92.3,67.6,92,72.5z"/></g></svg>