<?xml version="1.0" ?><svg id="Layer_1" style="enable-background:new 0 0 100 100;" version="1.1" viewBox="0 0 100 100" xml:space="preserve" xmlns="http://www.w3.org/2000/svg" xmlns:xlink="http://www.w3.org/1999/xlink"><style type="text/css">
	.st0{fill:none;}
	.st1{fill:none;stroke:#000000;stroke-width:0;stroke-linecap:round;stroke-linejoin:round;}
</style><title/><g><path class="st0" d="M52.3,31.7c0.8,0.4,1.7,0.7,2.7,0.7c1,0,2-0.3,2.9-0.7c1-0.5,2-1.1,2.9-1.9c1.6-1.4,3-3,4.2-4.8   c-0.1-0.1-0.2-0.2-0.2-0.3c-2.3-0.6-4.7-0.9-7.1-1.2c-0.1,0-0.3,0.1-0.4,0.1c-1.1,0-2.1,0.1-3.2,0.3c-0.9,0.1-1.8,0.5-2.5,1   c-0.4,0.3-0.8,0.8-1,1.3v0c-0.2,0.5-0.3,1-0.3,1.5c0,0.9,0.2,1.7,0.6,2.4C51.1,30.8,51.7,31.3,52.3,31.7z"/><path class="st0" d="M61.5,19.7c0.3,0.1,0.6,0.2,0.8,0.2c0-0.1,0-0.3-0.1-0.4c-0.6-2.8-1.5-5.6-2.9-8.2c-0.2-0.4-0.4-0.8-0.7-1.1   C58.5,10,58.2,9.8,58,9.6c-0.6-0.3-1.2-0.4-1.8-0.4c-0.1,0-0.2,0-0.3,0c-0.5,0-1,0.1-1.5,0.2c-0.5,0.2-0.8,0.6-1.1,1   c-0.4,0.9-0.5,1.9-0.3,2.8c0.3,0.8,0.7,1.6,1.3,2.2l0,0c0.7,0.7,1.4,1.3,2.2,1.9C58.1,18.4,59.8,19.2,61.5,19.7z"/><path class="st0" d="M92.3,25.5c-0.9-0.8-1.7-1.8-2.5-2.7c-0.1-0.2-0.3-0.4-0.4-0.6c-2.3,1.5-4.5,3-6.8,4.5c0,0-0.1,0-0.1,0   c-0.7,0.4-1.6,0.2-2-0.5c-0.4-0.7-0.2-1.6,0.5-2c2.4-1.5,4.8-3.1,7.2-4.7c0.1-0.1,0.2-0.1,0.2-0.1c0-0.4-0.1-0.7-0.1-1.1   c0-0.5-0.1-1.1-0.1-1.6c-0.4-2-1.8-3.6-3.8-4.2c-1-0.2-2-0.3-3-0.3c-1,0-2-0.2-3-0.4c0,0.1-0.1,0.2-0.2,0.3   c-1.1,1.4-2.2,2.9-3.1,4.5c-0.4,0.7-1.3,0.9-2,0.5c-0.7-0.4-0.9-1.3-0.5-2c1-1.6,2-3.2,3.2-4.7c-0.1-0.1-0.2-0.1-0.3-0.2   c-0.5-0.5-0.9-1.1-1.2-1.7C74.2,8,74,7.5,73.7,7.1c-0.4-0.5-0.9-1-1.5-1.2c-0.6-0.3-1.3-0.5-1.9-0.5c-0.3,0-0.5,0-0.8,0.1   c-0.8,5.9-1.5,11.8-2.3,17.7c1.9,2.4,3.9,4.6,6,6.8c1.6,1.6,3.1,3,4.7,4.3c4-2.9,8.8-4.6,13.7-4.8c0.6,0,1.2-0.1,1.7-0.2   c0.4-0.1,0.7-0.2,1-0.4c0.1-0.1,0.1-0.1,0.1-0.2l0-0.1c0-0.2-0.1-0.5-0.2-0.7C93.7,27,93.1,26.2,92.3,25.5z"/><path class="st0" d="M76.1,36.6c-1.6-1.4-3.3-2.9-5-4.7c-1.6-1.6-3-3.1-4.3-4.7c-0.8,1.2-1.7,2.3-2.7,3.3c-1.4,1.5-3.2,2.8-5.1,3.7   c-1.3,0.6-2.7,0.9-4.1,1c-1.4,0-2.7-0.3-4-1c-1.2-0.6-2.1-1.6-2.7-2.8c-0.6-1.2-0.9-2.5-0.9-3.8c0-0.9,0.2-1.8,0.6-2.7   c0.3-0.6,0.6-1.1,1-1.5c-0.3,0-0.6,0-0.9,0.1c-4.8,0.5-15.8,1.7-25.6,10.1c-4.2,3.6-7.6,8-10,13c-0.4,0.9-1.1,1.6-1.9,2.1   c-1.4,1-2.9,1.9-4.3,2.9c-0.4,0.3-0.7,0.8-0.7,1.3c0,0.3,0.1,0.5,0.2,0.8c0.1,0.2,0.4,0.4,0.6,0.6c0.9,0.5,1.8,1,2.7,1.4   c1.4,0.7,2.3,2,2.6,3.5c1.4,7.1,4.8,13.6,9.7,18.9c5.6,5.8,12.7,9.8,20.6,11.5c0.3-0.1,0.6-0.2,0.9-0.1c0.9,0.1,1.8,0.2,2.7,0.2   c0.2,0,0.3,0,0.5,0c0.8,0,1.5,0.6,1.5,1.4c0,0.8-0.6,1.5-1.4,1.5h-0.1l1.4,1.5c0,0,0.1,0.1,0.1,0.1c1,0.9,2.5,0.9,3.4-0.1   c1.5-1.6,3.1-3.3,4.6-4.9c0.4-0.4,0.8-0.7,1.2-1c6.8-3.9,12.4-9.7,16.2-16.6c3.4-6.3,4.2-13.1,4.2-19.3c0-3.4-0.2-6.5-0.4-9.3   C76.6,40.3,76.4,38.1,76.1,36.6z M56.5,42.5c-0.9,0.7-1.7,1.4-2.6,2.2c0.2,0.2,0.4,0.5,0.6,0.7c1.1,1.6,1.7,3.5,1.7,5.4   c0,1.4-0.3,2.8-0.8,4c-0.3,0.7-1.2,1.1-1.9,0.7s-1.1-1.2-0.7-1.9c0.4-0.9,0.5-1.9,0.5-2.9c0-1.4-0.4-2.7-1.2-3.8   c-1.3-1.8-3.4-2.9-5.6-3c-0.2,0-0.4,0-0.6,0c-1.2,0.1-2.3,0.6-3.3,1.2c-0.9,0.6-1.7,1.4-2.2,2.4c-0.3,0.5-0.4,1.1-0.5,1.7v0.1   c0,0.9,0.3,1.7,0.9,2.4c0.7,0.9,1.4,1.8,2.2,2.6c0.8,0.8,1.7,1.5,2.6,2.2c1,0.7,1.9,1.6,2.5,2.6c1,1.4,1.5,3.1,1.6,4.8   c0,0.5,0,0.9-0.1,1.4c-0.3,1.4-1,2.6-2,3.6c-0.6,0.6-1.3,1.2-2.1,1.6c-1.7,1-3.6,1.6-5.6,1.6c-0.5,0-1,0-1.5-0.1   c-2-0.3-3.8-1.2-5.3-2.5c-0.7,0.7-1.3,1.5-1.9,2.3c0,0,0,0,0,0c-0.5,0.6-1.4,0.7-2,0.2c-0.6-0.5-0.7-1.4-0.2-2   c0.7-0.9,1.5-1.8,2.2-2.7c-0.8-1.1-1.4-2.3-1.8-3.6c-0.3-1.1-0.5-2.3-0.5-3.4c0-1.6,0.3-3.2,0.9-4.7c0,0,0-0.1,0-0.1   c0.3-0.7,1.2-1.1,1.9-0.7c0.7,0.3,1.1,1.2,0.7,1.9c-0.5,1.2-0.7,2.4-0.7,3.7c0,0.9,0.1,1.7,0.4,2.6c0.5,1.5,1.3,2.9,2.5,4   c1.2,1.1,2.7,1.9,4.3,2.2c0.4,0.1,0.7,0.1,1.1,0.1c1.4,0,2.8-0.4,4.1-1.1c0.6-0.3,1.1-0.7,1.6-1.2c0.6-0.6,1-1.3,1.2-2.2   c0.1-0.3,0.1-0.5,0.1-0.8c-0.1-1.2-0.5-2.3-1.2-3.3c-0.4-0.7-1-1.3-1.7-1.8c-1.1-0.7-2.1-1.6-3-2.5c-0.9-0.9-1.8-1.9-2.5-3   c-0.8-1.2-1.3-2.6-1.4-4v-0.1v0c0-1,0.3-2,0.8-2.9c0.5-0.9,1.1-1.8,1.9-2.5c1.6-1.5,3.7-2.5,5.9-2.7c0.3,0,0.6,0,0.9,0   c1.8,0,3.7,0.6,5.2,1.6c0.9-0.9,1.9-1.8,3-2.6c0.6-0.5,1.5-0.4,2,0.3C57.3,41.1,57.2,42,56.5,42.5z"/><path d="M96.8,26.5c-0.9-1.5-2-2.8-3.2-3.9c-0.5-0.5-1-1-1.4-1.6c-0.3-0.5-0.6-1-0.8-1.5c-0.1-0.5-0.2-0.9-0.2-1.4   c0-0.6-0.1-1.3-0.1-1.9c-0.5-3.1-2.8-5.7-5.9-6.6c-1.5-0.3-3.1-0.5-4.6-0.5c-0.6,0-1.2-0.1-1.7-0.3c-0.4-0.1-0.8-0.4-1.1-0.7   c-0.3-0.3-0.5-0.7-0.7-1.1c-0.3-0.6-0.6-1.1-0.9-1.6c-0.7-0.9-1.5-1.7-2.6-2.2c-1-0.5-2.1-0.8-3.2-0.8c-0.9,0-1.8,0.2-2.7,0.5   c-0.5,0.2-0.8,0.6-0.9,1.1l-1.8,14.2c-0.6-2.9-1.6-5.7-3-8.3c-0.3-0.5-0.6-1-0.9-1.5c-0.4-0.6-0.9-1-1.5-1.4   c-1-0.6-2.1-0.9-3.3-0.9c-0.1,0-0.2,0-0.4,0c-0.9,0-1.8,0.1-2.6,0.5c-1,0.5-1.9,1.3-2.4,2.3c-0.8,1.5-1,3.3-0.5,5   c0.4,1.2,1,2.4,1.9,3.3c0.8,0.9,1.7,1.7,2.7,2.4c0.4,0.3,0.8,0.5,1.1,0.7c-1.1-0.1-2.2-0.1-3.3-0.1c-1.6,0-3.3,0.1-5.1,0.2   C42.8,21,31,22.3,20.5,31.3c-4.5,3.9-8.1,8.6-10.7,13.9c-0.2,0.4-0.5,0.8-0.9,1l-4.3,2.9c-2,1.4-2.5,4.1-1.2,6.1   c0.4,0.6,1,1.1,1.6,1.4l2.7,1.4c0.6,0.3,1,0.9,1.2,1.5c1.5,7.6,5.1,14.7,10.5,20.3c6,6.3,13.7,10.6,22.2,12.4   c0.4,0.1,0.7,0.3,1,0.5l0.6-0.6l-0.6,0.6l2.9,3c2,2.1,5.4,2.2,7.5,0.2c0.1-0.1,0.1-0.1,0.2-0.2l4.6-4.9c0.2-0.2,0.4-0.3,0.6-0.4   c7.3-4.2,13.3-10.3,17.3-17.7c3.7-6.9,4.5-14.2,4.5-20.6c0-3.5-0.2-6.7-0.4-9.5c-0.1-2.3-0.4-4.2-0.6-5.8c3.6-2.8,8-4.4,12.6-4.6   c1,0,2.1-0.2,3.1-0.5c0.6-0.2,1.1-0.5,1.5-0.9c0.5-0.5,0.8-1.1,1-1.8c0-0.2,0-0.3,0-0.5C97.3,27.8,97.1,27.1,96.8,26.5z M50.3,14.1   L50.3,14.1L50.3,14.1z M54.4,15.5L54.4,15.5c-0.6-0.6-1-1.4-1.3-2.2c-0.3-0.9-0.2-1.9,0.3-2.8c0.2-0.5,0.6-0.8,1.1-1   c0.5-0.2,1-0.3,1.5-0.2c0.1,0,0.2,0,0.3,0c0.6,0,1.3,0.1,1.8,0.4c0.3,0.2,0.5,0.4,0.7,0.7c0.3,0.4,0.5,0.7,0.7,1.1   c1.3,2.6,2.3,5.3,2.9,8.2c0,0.1,0.1,0.3,0.1,0.4c-0.2-0.1-0.5-0.1-0.8-0.2c-1.7-0.6-3.4-1.4-4.9-2.4C55.8,16.8,55,16.2,54.4,15.5z    M50.5,26.1L50.5,26.1c0.2-0.5,0.6-0.9,1-1.3c0.7-0.5,1.6-0.9,2.5-1c1.1-0.2,2.1-0.3,3.2-0.3c0.1,0,0.3,0,0.4-0.1   c2.4,0.2,4.8,0.6,7.1,1.2c0.1,0.1,0.2,0.2,0.2,0.3c-1.2,1.8-2.6,3.4-4.2,4.8c-0.9,0.8-1.8,1.4-2.9,1.9C57,32.1,56,32.3,55,32.4   c-0.9,0-1.8-0.2-2.7-0.7c-0.7-0.4-1.2-0.9-1.5-1.6c-0.4-0.8-0.6-1.6-0.6-2.4C50.2,27.1,50.3,26.6,50.5,26.1z M73,71.5   c-3.8,6.9-9.4,12.7-16.2,16.6c-0.4,0.3-0.9,0.6-1.2,1c-1.5,1.6-3.1,3.3-4.6,4.9c-0.9,1-2.4,1-3.4,0.1c0,0-0.1-0.1-0.1-0.1l-1.4-1.5   h0.1c0.8,0,1.4-0.7,1.4-1.5c0-0.8-0.7-1.4-1.5-1.4c-0.2,0-0.3,0-0.5,0c-0.9,0-1.8-0.1-2.7-0.2c-0.3,0-0.6,0-0.9,0.1   c-7.8-1.7-15-5.7-20.6-11.5c-5-5.2-8.3-11.8-9.7-18.9c-0.3-1.5-1.3-2.8-2.6-3.5c-0.9-0.5-1.8-1-2.7-1.4c-0.3-0.1-0.5-0.3-0.6-0.6   c-0.1-0.2-0.2-0.5-0.2-0.8c0-0.5,0.2-1,0.7-1.3c1.4-1,2.9-1.9,4.3-2.9c0.8-0.5,1.4-1.3,1.9-2.1c2.4-5,5.9-9.4,10-13   c9.8-8.4,20.8-9.6,25.6-10.1c0.3,0,0.6,0,0.9-0.1c-0.4,0.5-0.7,1-1,1.5c-0.4,0.8-0.6,1.8-0.6,2.7c0,1.3,0.3,2.6,0.9,3.8   c0.6,1.2,1.6,2.2,2.7,2.8c1.2,0.6,2.6,1,4,1c1.4,0,2.8-0.3,4.1-1c1.9-0.9,3.6-2.2,5.1-3.7c1-1,1.9-2.1,2.7-3.3   c1.3,1.5,2.7,3.1,4.3,4.7c1.7,1.7,3.4,3.3,5,4.7c0.2,1.6,0.5,3.7,0.7,6.3c0.2,2.8,0.4,5.9,0.4,9.3C77.2,58.3,76.4,65.1,73,71.5z    M94.4,28.6c0,0.1,0,0.2-0.1,0.2c-0.3,0.2-0.6,0.4-1,0.4c-0.6,0.1-1.2,0.2-1.7,0.2c-5,0.2-9.7,1.9-13.7,4.8   c-1.5-1.3-3.1-2.7-4.7-4.3c-2.1-2.1-4.1-4.4-6-6.8c0.8-5.9,1.5-11.8,2.3-17.7c0.3-0.1,0.5-0.1,0.8-0.1c0.7,0,1.3,0.2,1.9,0.5   c0.6,0.3,1.1,0.7,1.5,1.2C74,7.5,74.2,8,74.5,8.4c0.3,0.6,0.7,1.2,1.2,1.7c0.1,0.1,0.2,0.1,0.3,0.2c-1.2,1.5-2.2,3.1-3.2,4.7   c-0.4,0.7-0.2,1.6,0.5,2c0.7,0.4,1.6,0.2,2-0.5c0.9-1.6,2-3.1,3.1-4.5c0.1-0.1,0.1-0.2,0.2-0.3c1,0.2,2,0.4,3,0.4c1,0,2,0.1,3,0.3   c2,0.6,3.4,2.2,3.8,4.2c0.1,0.5,0.1,1.1,0.1,1.6c0,0.3,0,0.7,0.1,1.1c-0.1,0-0.2,0.1-0.2,0.1c-2.4,1.6-4.7,3.2-7.2,4.7   c-0.7,0.4-0.9,1.3-0.5,2c0.4,0.7,1.3,0.9,2,0.5c0,0,0.1,0,0.1,0c2.3-1.5,4.6-3,6.8-4.5c0.1,0.2,0.3,0.4,0.4,0.6   c0.8,1,1.6,1.9,2.5,2.7c0.7,0.7,1.4,1.5,1.9,2.4C94.3,28,94.4,28.3,94.4,28.6L94.4,28.6z"/><line class="st1" x1="50.3" x2="50.3" y1="14.1" y2="14.1"/><path d="M54.8,40.2c-1,0.8-2,1.7-3,2.6c-1.5-1-3.4-1.5-5.2-1.6c-0.3,0-0.6,0-0.9,0c-2.2,0.2-4.3,1.2-5.9,2.7   c-0.8,0.7-1.4,1.5-1.9,2.5c-0.5,0.9-0.7,1.9-0.8,2.9v0v0.1c0,1.4,0.5,2.8,1.4,4c0.8,1.1,1.6,2,2.5,3c0.9,0.9,1.9,1.8,3,2.5   c0.7,0.5,1.3,1.1,1.7,1.8c0.7,1,1.1,2.1,1.2,3.3c0,0.3,0,0.5-0.1,0.8c-0.2,0.8-0.6,1.6-1.2,2.2c-0.5,0.5-1,0.9-1.6,1.2   c-1.2,0.7-2.6,1.1-4.1,1.1c-0.4,0-0.7,0-1.1-0.1c-1.6-0.3-3.1-1-4.3-2.2c-1.2-1.1-2-2.5-2.5-4c-0.3-0.8-0.4-1.7-0.4-2.6   c0-1.3,0.3-2.5,0.7-3.7c0.3-0.7,0-1.6-0.7-1.9c-0.7-0.3-1.6,0-1.9,0.7c0,0,0,0.1,0,0.1c-0.6,1.5-0.9,3.1-0.9,4.7   c0,1.2,0.2,2.3,0.5,3.4c0.4,1.3,1,2.5,1.8,3.6c-0.8,0.9-1.5,1.8-2.2,2.7c-0.5,0.6-0.4,1.5,0.2,2c0.6,0.5,1.5,0.4,2-0.2c0,0,0,0,0,0   c0.6-0.8,1.2-1.6,1.9-2.3c1.5,1.3,3.4,2.2,5.3,2.5c0.5,0.1,1,0.1,1.5,0.1c2,0,3.9-0.5,5.6-1.6c0.8-0.5,1.5-1,2.1-1.6   c1-1,1.7-2.2,2-3.6c0.1-0.5,0.1-0.9,0.1-1.4c-0.1-1.7-0.6-3.4-1.6-4.8c-0.6-1-1.5-1.9-2.5-2.6c-0.9-0.6-1.8-1.3-2.6-2.2   c-0.8-0.8-1.6-1.7-2.2-2.6c-0.5-0.7-0.8-1.5-0.9-2.4v-0.1c0-0.6,0.2-1.2,0.5-1.7c0.5-1,1.3-1.8,2.2-2.4c1-0.7,2.1-1.1,3.3-1.2   c0.2,0,0.4,0,0.6,0c2.2,0,4.3,1.1,5.6,3c0.8,1.1,1.2,2.4,1.2,3.8c0,1-0.2,2-0.5,2.9c-0.3,0.7,0,1.6,0.7,1.9s1.6,0,1.9-0.7   c0.5-1.3,0.8-2.7,0.8-4c0-1.9-0.6-3.8-1.7-5.4c-0.2-0.3-0.4-0.5-0.6-0.7c0.8-0.8,1.7-1.5,2.6-2.2c0.6-0.5,0.7-1.4,0.3-2   C56.3,39.8,55.4,39.7,54.8,40.2z"/></g></svg>