<?xml version="1.0" ?><!DOCTYPE svg  PUBLIC '-//W3C//DTD SVG 1.1//EN'  'http://www.w3.org/Graphics/SVG/1.1/DTD/svg11.dtd'><svg enable-background="new 0 0 48 48" height="48px" id="Layer_1" version="1.1" viewBox="0 0 48 48" width="48px" xml:space="preserve" xmlns="http://www.w3.org/2000/svg" xmlns:xlink="http://www.w3.org/1999/xlink"><g><path d="M24,0C10.745,0,0,10.744,0,24c0,13.254,10.745,24,24,24s24-10.746,24-24C48,10.744,37.255,0,24,0z    M24.028,44.008c-11.068,0-20.041-8.973-20.041-20.041S12.96,3.925,24.028,3.925S44.07,12.898,44.07,23.967   S35.097,44.008,24.028,44.008z" fill="#231F20"/><path d="M30.823,18.477h-2.871c-0.876,0,0-0.451,0-0.451l-0.013-0.004c0.345-0.184,0.676-0.379,0.958-0.596   c0.333-0.217,0.604-0.516,0.803-0.861c0.01-0.018,0.024-0.033,0.033-0.051c-0.001,0-0.003-0.002-0.004-0.002   c0.192-0.357,0.313-0.76,0.313-1.193c0-1.393-1.128-2.521-2.521-2.521c-1.192,0-2.187,0.832-2.448,1.945l-0.005-0.004   c0,0-0.369,1.438-0.673,2.738c-0.001,0.004-0.002,0.004-0.002,0.008c-0.361,1.49-0.787,0-0.787,0l0,0   c-0.305-1.305-0.675-2.746-0.675-2.746l-0.005,0.004c-0.262-1.113-1.256-1.945-2.448-1.945c-1.393,0-2.521,1.129-2.521,2.521   c0,0.434,0.12,0.836,0.313,1.193c-0.001,0-0.003,0.002-0.004,0.002c0.009,0.018,0.023,0.033,0.033,0.051   c0.198,0.346,0.47,0.645,0.803,0.861c0.292,0.225,0.637,0.426,0.996,0.617l-0.003,0.008c0,0,0.783,0.426,0,0.426h-2.919   c-0.85,0-1.539,0.689-1.539,1.539V33.66c0,0.852,0.689,1.541,1.539,1.541h13.646c0.85,0,1.539-0.689,1.539-1.541V20.016   C32.362,19.166,31.673,18.477,30.823,18.477z M29.606,31.047c0,0.84-0.682,1.523-1.522,1.523h-8.23   c-0.841,0-1.522-0.684-1.522-1.523v-8.23c0-0.84,0.682-1.521,1.522-1.521h8.23c0.841,0,1.522,0.682,1.522,1.521V31.047z" fill="#231F20"/></g></svg>