<?xml version="1.0" ?><!DOCTYPE svg  PUBLIC '-//W3C//DTD SVG 1.1//EN'  'http://www.w3.org/Graphics/SVG/1.1/DTD/svg11.dtd'><svg enable-background="new 0 0 26 26" id="Слой_1" version="1.1" viewBox="0 0 26 26" xml:space="preserve" xmlns="http://www.w3.org/2000/svg" xmlns:xlink="http://www.w3.org/1999/xlink"><path d="M23.4335938,8.8789063h-2.2537842l-0.6456299-3.6582031  c-0.1484375-0.8496094-0.9697266-1.4169922-1.8115234-1.2705078L2.2939453,6.8476563  c-0.8486328,0.1494141-1.4179688,0.9628906-1.2675781,1.8125L2.7783203,18.59375  c0.0722656,0.4111328,0.2998047,0.7705078,0.6416016,1.0107422c0.2666016,0.1865234,0.5761719,0.2841797,0.8945313,0.2841797  c0.0917969,0,0.1835938-0.0078125,0.2753906-0.0244141l0.5986328-0.1057129v0.7512207  c0,0.8623047,0.7011719,1.5634766,1.5634766,1.5634766h16.6816406c0.8623047,0,1.5644531-0.7011719,1.5644531-1.5634766V10.4423828  C24.9980469,9.5800781,24.2958984,8.8789063,23.4335938,8.8789063z M23.4980469,10.4423828v1.4707031H6.694397l0.0575562-1.5341797  L23.4980469,10.4423828z M4.2548828,18.3339844l-1.46875-8.328125L2.5546875,8.3242188l16.5029297-2.84375l0.5994873,3.3984375  H6.7519531c-0.8623047,0-1.5634766,0.7011719-1.5634766,1.5634766v7.7669067L4.2548828,18.3339844z M23.4335938,20.5732422  L6.6884766,20.5097656v-5.9414063h16.8095703v5.9414063C23.4980469,20.5449219,23.46875,20.5732422,23.4335938,20.5732422z" fill="#1D1D1B"/></svg>